# xmcd CD database file
#
# Track frame offsets:
#	150
#	30458
#	54297
#	77668
#	102342
#	148795
#	167255
#	188221
#	219572
#	244573
#
# Disc length: 3384 seconds
#
# Revision: 0
# Processed by: cddbd v1.5.2PL0 Copyright (c) Steve Scherf et al.
# Submitted via: CDex 1.51
#
DISCID=7a0d360a
DTITLE=Jacob Young - Sideways
DYEAR=2007
DGENRE=Jazz
TTITLE0=Sideways
TTITLE1=Time Rebel
TTITLE2=Slow Bo-Bo
TTITLE3=Near South End
TTITLE4=Out Of Night
TTITLE5=Hanna's Lament
TTITLE6=St. Ella
TTITLE7=Maybe We Can
TTITLE8=Wide Asleep
TTITLE9=Gazing At Stars
EXTD=YEAR: 2007
EXTT0=
EXTT1=
EXTT2=
EXTT3=
EXTT4=
EXTT5=
EXTT6=
EXTT7=
EXTT8=
EXTT9=
PLAYORDER=
